PathFileType	4	(X/Y/Z)	C:/Users/beibeiliu/ov580/test_trc\sequence.9_training_dense_right.trc
DataRate	CameraRate	NumFrames	NumMarkers	Units	OrigDataRate	OrigDataStartFrame	OrigNumFrames
120	120	8	19	mm	120	50	398
Frame#	Time	ThumbCMC			ThumbMCP			ThumbIP			ThumbTip			IndexMCP			IndexPIP			IndexTip			MiddleMCP			MiddlePIP			MiddleTip			RingMCP			RingPIP			RingTip			PinkyMCP			PinkyPIP			PinkyTip			BackHand1			BackHand2			BackHand3	
		X0	Y0	Z0	X1	Y1	Z1	X2	Y2	Z2	X3	Y3	Z3	X4	Y4	Z4	X5	Y5	Z5	X6	Y6	Z6	X7	Y7	Z7	X8	Y8	Z8	X9	Y9	Z9	X10	Y10	Z10	X11	Y11	Z11	X12	Y12	Z12	X13	Y13	Z13	X14	Y14	Z14	X15	Y15	Z15	X16	Y16	Z16	X17	Y17	Z17	X18	Y18	Z18	
49	0.408333	189.464	-39.1681	-11.7298	178.131	-65.3811	-13.6584	168.406	-80.9541	-16.0742	160.016	-95.5275	-21.0175	212.157	-85.0801	-52.3708	212.953	-108.067	-63.1909	214.215	-126.38	-73.8415	234.4	-80.093	-54.1038	246.616	-101.261	-67.8864	251.325	-116.863	-79.9712	258.024	-70.3864	-45.4016	263.53	-84.9789	-55.8174	277.154	-98.3113	-69.2706	268.14	-56.2415	-28.5952	284.258	-64.1086	-31.8691	292.935	-68.0805	-43.5465	239.307	-32.2065	-30.3722	229.04	-12.6938	-19.8726	209.688	-27.5787	-31.7252	
50	0.416667	188.659	-39.7889	-13.7048	175.733	-60.6198	-10.7129	167.255	-77.1072	-14.593	154.753	-91.1265	-19.5471	207.096	-90.8059	-50.8672	205.941	-111.291	-57.0458	206.217	-129.876	-64.4031	233.905	-91.8848	-53.0808	237.067	-109.01	-59.6306	248.775	-128.332	-71.1952	257.158	-79.5301	-41.7209	262.45	-95.6026	-49.3337	273.903	-112.151	-60.8863	269.999	-66.8715	-26.301	280.19	-78.4589	-32.4602	295.696	-82.1172	-37.2998	240.536	-41.2107	-32.4877	235.265	-17.0321	-24.1696	215.129	-30.2653	-31.4142	
51	0.425	191.724	-34.6155	-13.4922	179.775	-59.0924	-13.0887	168.988	-73.9777	-14.077	154.232	-86.3763	-18.4904	207.465	-92.1122	-45.946	203.669	-113.087	-48.3387	196.137	-134.648	-55.4917	231.575	-94.9472	-45.8967	231.898	-116.645	-52.1619	234.497	-141.54	-63.4058	255.672	-88.3701	-35.9118	256.673	-110.69	-45.3635	266.234	-126.322	-52.4874	269.906	-78.3487	-23.6231	279.279	-88.0703	-24.0621	292.674	-100.135	-35.9522	245.329	-47.7657	-31.482	246.102	-21.5716	-23.2217	218.979	-33.9142	-34.6681	
52	0.433333	198.549	-35.1984	-17.3767	181.068	-54.9711	-12.2804	170.436	-72.6962	-14.2866	154.272	-79.0829	-16.2026	205.799	-99.4974	-42.7656	195.934	-118.489	-44.9911	192.945	-141.81	-48.0701	231.414	-104.805	-42.7387	225.711	-124.285	-45.949	229.917	-149.758	-51.8272	251.258	-100.058	-33.0862	253.189	-118.957	-37.0581	258.769	-138.499	-44.0548	267.494	-86.7559	-19.5986	274.847	-102	-22.6743	284.753	-114.418	-30.1272	252.484	-53.9364	-28.9278	249.71	-26.2399	-22.6609	228.029	-39.444	-33.5609	
53	0.441667	206.347	-35.1547	-18.6689	184.704	-51.2806	-13.735	172.08	-66.1043	-13.6995	153.901	-76.5008	-17.9795	206.685	-98.1157	-40.8586	198.513	-117.644	-40.2649	189.706	-138.776	-39.8003	227.753	-107.294	-39.4405	224.239	-133.441	-42.0815	223.356	-154.942	-43.8838	252.106	-108.114	-28.3711	250.987	-125.912	-31.1677	247.62	-148.024	-38.2291	267.357	-94.4397	-14.4901	271.973	-110.566	-16.3596	274.109	-126.105	-26.5961	257.191	-58.9476	-26.2229	258.729	-34.9436	-22.7339	233.022	-43.4683	-36.475	
54	0.45	215.979	-36.785	-17.6071	194.141	-50.5723	-12.6959	175.359	-66.2679	-15.4858	160.914	-70.8294	-16.2288	207.165	-103.414	-39.1194	193.624	-121.858	-37.6772	184.78	-138.021	-35.0193	227.501	-113.053	-35.8363	219.378	-136.788	-36.8775	212.884	-155.695	-38.1652	247.114	-113.042	-24.8402	247.689	-131.861	-25.5524	242.597	-150.404	-30.2073	264.252	-104.999	-12.1945	263.797	-121.873	-14.4882	267.077	-140.768	-21.8987	257.867	-67.785	-23.4447	267.03	-41.9787	-18.5819	239.921	-49.9799	-35.9133	
55	0.458333	223.176	-39.0512	-17.5795	198.648	-53.1733	-14.5927	180.689	-61.9744	-14.8	163.199	-72.179	-17.7024	207.936	-101.52	-37.299	196.236	-120.439	-33.241	184.08	-135.68	-29.9389	228.255	-114.573	-31.7814	217.398	-135.31	-31.9485	208.392	-160.354	-31.218	249.627	-114.553	-18.5485	238.739	-136.656	-23.8142	238.781	-156.099	-24.0476	262.545	-106.964	-7.29734	261.824	-127.362	-8.86589	257.86	-142.537	-17.6544	264.137	-73.4206	-20.5579	272.675	-47.2114	-14.8068	244.794	-51.9534	-33.9051	
56	0.466667	228.162	-39.8288	-17.5719	201.524	-50.8555	-13.1276	184.441	-62.9504	-15.0013	166.747	-68.065	-17.1703	210.783	-103.079	-34.279	195.887	-115.783	-31.7174	180.184	-134.491	-26.8091	228.059	-115.032	-29.0413	217.342	-134.233	-27.1081	203.51	-156.393	-26.7173	245.481	-115.592	-17.1431	239.874	-138.637	-17.2595	233.338	-156.348	-17.6391	260.39	-110.74	-5.39573	259.851	-129.596	-4.70348	255.918	-148.368	-8.22737	267.932	-75.4128	-15.4259	277.386	-52.4342	-13.6544	252.33	-56.3362	-30.0543	
